REM DIRINDEX 1\6,1\2\7,1\2\8,1\2\9,1\3\10,1\3\11,1\4\12,1\4\13,1\4\14,1\5\15,1\5\16,1\5\17
REM DIRNAME cjc041,folder01,folder02,folder03,folder04,folder05,folder06,folder07,folder08,folder09,folder10,folder11,folder12,folder13,folder14,folder15,folder16
TITLE ""
FILE "3Q_j_1197-1212.mp3" MP3
  TRACK 01 AUDIO
    TITLE "12:cjc041_0891"
    INDEX 01 00:00:00
  TRACK 02 AUDIO
    TITLE "0:"
    INDEX 01 00:01:40
  TRACK 03 AUDIO
    TITLE "13:cjc041_0892"
    INDEX 01 00:02:22
  TRACK 04 AUDIO
    TITLE "0:"
    INDEX 01 00:06:02
  TRACK 05 AUDIO
    TITLE "14:cjc041_0893"
    INDEX 01 00:06:61
  TRACK 06 AUDIO
    TITLE "0:"
    INDEX 01 00:10:33
  TRACK 07 AUDIO
    TITLE "12:cjc041_0894"
    INDEX 01 00:11:13
  TRACK 08 AUDIO
    TITLE "0:"
    INDEX 01 00:12:54
  TRACK 09 AUDIO
    TITLE "13:cjc041_0895"
    INDEX 01 00:13:28
  TRACK 10 AUDIO
    TITLE "0:"
    INDEX 01 00:14:74
  TRACK 11 AUDIO
    TITLE "14:cjc041_0896"
    INDEX 01 00:15:50
  TRACK 12 AUDIO
    TITLE "0:"
    INDEX 01 00:19:05
  TRACK 13 AUDIO
    TITLE "12:cjc041_0897"
    INDEX 01 00:19:65
  TRACK 14 AUDIO
    TITLE "0:"
    INDEX 01 00:21:33
  TRACK 15 AUDIO
    TITLE "13:cjc041_0898"
    INDEX 01 00:22:19
  TRACK 16 AUDIO
    TITLE "0:"
    INDEX 01 00:23:46
  TRACK 17 AUDIO
    TITLE "14:cjc041_0899"
    INDEX 01 00:24:27
  TRACK 18 AUDIO
    TITLE "0:"
    INDEX 01 00:28:15
  TRACK 19 AUDIO
    TITLE "12:cjc041_0900"
    INDEX 01 00:29:03
  TRACK 20 AUDIO
    TITLE "0:"
    INDEX 01 00:30:38
  TRACK 21 AUDIO
    TITLE "13:cjc041_0901"
    INDEX 01 00:31:16
  TRACK 22 AUDIO
    TITLE "0:"
    INDEX 01 00:32:48
  TRACK 23 AUDIO
    TITLE "14:cjc041_0902"
    INDEX 01 00:33:26
  TRACK 24 AUDIO
    TITLE "0:"
    INDEX 01 00:37:18
  TRACK 25 AUDIO
    TITLE "12:cjc041_0903"
    INDEX 01 00:37:73
  TRACK 26 AUDIO
    TITLE "0:"
    INDEX 01 00:39:64
  TRACK 27 AUDIO
    TITLE "13:cjc041_0904"
    INDEX 01 00:40:46
  TRACK 28 AUDIO
    TITLE "0:"
    INDEX 01 00:42:27
  TRACK 29 AUDIO
    TITLE "14:cjc041_0905"
    INDEX 01 00:43:05
  TRACK 30 AUDIO
    TITLE "0:"
    INDEX 01 00:47:70
  TRACK 31 AUDIO
    TITLE "12:cjc041_0906"
    INDEX 01 00:48:55
  TRACK 32 AUDIO
    TITLE "0:"
    INDEX 01 00:50:48
  TRACK 33 AUDIO
    TITLE "13:cjc041_0907"
    INDEX 01 00:51:36
  TRACK 34 AUDIO
    TITLE "0:"
    INDEX 01 00:53:00
  TRACK 35 AUDIO
    TITLE "14:cjc041_0908"
    INDEX 01 00:53:60
  TRACK 36 AUDIO
    TITLE "0:"
    INDEX 01 00:56:33
  TRACK 37 AUDIO
    TITLE "12:cjc041_0909"
    INDEX 01 00:57:17
  TRACK 38 AUDIO
    TITLE "0:"
    INDEX 01 00:59:02
  TRACK 39 AUDIO
    TITLE "13:cjc041_0910"
    INDEX 01 00:59:63
  TRACK 40 AUDIO
    TITLE "0:"
    INDEX 01 01:01:33
  TRACK 41 AUDIO
    TITLE "14:cjc041_0911"
    INDEX 01 01:02:16
  TRACK 42 AUDIO
    TITLE "0:"
    INDEX 01 01:07:14
  TRACK 43 AUDIO
    TITLE "12:cjc041_0912"
    INDEX 01 01:07:70
  TRACK 44 AUDIO
    TITLE "0:"
    INDEX 01 01:09:28
  TRACK 45 AUDIO
    TITLE "13:cjc041_0913"
    INDEX 01 01:10:10
  TRACK 46 AUDIO
    TITLE "0:"
    INDEX 01 01:11:43
  TRACK 47 AUDIO
    TITLE "14:cjc041_0914"
    INDEX 01 01:12:30
  TRACK 48 AUDIO
    TITLE "0:"
    INDEX 01 01:16:22
  TRACK 49 AUDIO
    TITLE "12:cjc041_0915"
    INDEX 01 01:17:04
  TRACK 50 AUDIO
    TITLE "0:"
    INDEX 01 01:19:03
  TRACK 51 AUDIO
    TITLE "13:cjc041_0916"
    INDEX 01 01:19:60
  TRACK 52 AUDIO
    TITLE "0:"
    INDEX 01 01:21:02
  TRACK 53 AUDIO
    TITLE "14:cjc041_0917"
    INDEX 01 01:21:55
  TRACK 54 AUDIO
    TITLE "0:"
    INDEX 01 01:25:45
  TRACK 55 AUDIO
    TITLE "12:cjc041_0918"
    INDEX 01 01:26:29
  TRACK 56 AUDIO
    TITLE "0:"
    INDEX 01 01:27:63
  TRACK 57 AUDIO
    TITLE "13:cjc041_0919"
    INDEX 01 01:28:45
  TRACK 58 AUDIO
    TITLE "0:"
    INDEX 01 01:30:71
  TRACK 59 AUDIO
    TITLE "14:cjc041_0920"
    INDEX 01 01:31:53
  TRACK 60 AUDIO
    TITLE "0:"
    INDEX 01 01:35:29
  TRACK 61 AUDIO
    TITLE "12:cjc041_0921"
    INDEX 01 01:36:11
  TRACK 62 AUDIO
    TITLE "0:"
    INDEX 01 01:37:44
  TRACK 63 AUDIO
    TITLE "13:cjc041_0922"
    INDEX 01 01:38:28
  TRACK 64 AUDIO
    TITLE "0:"
    INDEX 01 01:40:42
  TRACK 65 AUDIO
    TITLE "14:cjc041_0923"
    INDEX 01 01:41:26
  TRACK 66 AUDIO
    TITLE "0:"
    INDEX 01 01:44:30
  TRACK 67 AUDIO
    TITLE "12:cjc041_0924"
    INDEX 01 01:45:20
  TRACK 68 AUDIO
    TITLE "0:"
    INDEX 01 01:47:13
  TRACK 69 AUDIO
    TITLE "13:cjc041_0925"
    INDEX 01 01:47:70
  TRACK 70 AUDIO
    TITLE "0:"
    INDEX 01 01:50:15
  TRACK 71 AUDIO
    TITLE "14:cjc041_0926"
    INDEX 01 01:50:74
  TRACK 72 AUDIO
    TITLE "0:"
    INDEX 01 01:54:44
  TRACK 73 AUDIO
    TITLE "12:cjc041_0927"
    INDEX 01 01:55:22
  TRACK 74 AUDIO
    TITLE "0:"
    INDEX 01 01:56:59
  TRACK 75 AUDIO
    TITLE "13:cjc041_0928"
    INDEX 01 01:57:41
  TRACK 76 AUDIO
    TITLE "0:"
    INDEX 01 02:00:06
  TRACK 77 AUDIO
    TITLE "14:cjc041_0929"
    INDEX 01 02:00:59
  TRACK 78 AUDIO
    TITLE "0:"
    INDEX 01 02:04:02
  TRACK 79 AUDIO
    TITLE "12:cjc041_0930"
    INDEX 01 02:04:59
  TRACK 80 AUDIO
    TITLE "0:"
    INDEX 01 02:06:30
  TRACK 81 AUDIO
    TITLE "13:cjc041_0931"
    INDEX 01 02:07:12
  TRACK 82 AUDIO
    TITLE "0:"
    INDEX 01 02:10:67
  TRACK 83 AUDIO
    TITLE "14:cjc041_0932"
    INDEX 01 02:11:49
  TRACK 84 AUDIO
    TITLE "0:"
    INDEX 01 02:16:05
  TRACK 85 AUDIO
    TITLE "12:cjc041_0933"
    INDEX 01 02:16:62
  TRACK 86 AUDIO
    TITLE "0:"
    INDEX 01 02:18:25
  TRACK 87 AUDIO
    TITLE "13:cjc041_0934"
    INDEX 01 02:19:05
  TRACK 88 AUDIO
    TITLE "0:"
    INDEX 01 02:20:34
  TRACK 89 AUDIO
    TITLE "14:cjc041_0935"
    INDEX 01 02:21:12
  TRACK 90 AUDIO
    TITLE "0:"
    INDEX 01 02:24:71
  TRACK 91 AUDIO
    TITLE "12:cjc041_0936"
    INDEX 01 02:25:51
  TRACK 92 AUDIO
    TITLE "0:"
    INDEX 01 02:26:72
  TRACK 93 AUDIO
    TITLE "13:cjc041_0937"
    INDEX 01 02:27:54
  TRACK 94 AUDIO
    TITLE "0:"
    INDEX 01 02:29:00
  TRACK 95 AUDIO
    TITLE "14:cjc041_0938"
    INDEX 01 02:29:51
  TRACK 96 AUDIO
    TITLE "0:"
    INDEX 01 02:32:72
